<svg width="40" height="41" viewBox="0 0 40 41" fill="none" xmlns="http://www.w3.org/2000/svg">
<path d="M20.0003 0.145401C8.95586 0.145401 0 9.32593 0 20.6517C0 29.7119 5.73062 37.3985 13.6772 40.1102C14.6766 40.2999 15.0441 39.6652 15.0441 39.1236C15.0441 38.6348 15.0253 37.0192 15.0169 35.3057C9.4525 36.5464 8.27844 32.8862 8.27844 32.8862C7.36898 30.5161 6.05781 29.8857 6.05781 29.8857C4.24328 28.613 6.19492 28.6392 6.19492 28.6392C8.20273 28.7838 9.26039 30.7525 9.26039 30.7525C11.0445 33.8874 13.9391 32.981 15.0809 32.457C15.2601 31.1319 15.7782 30.227 16.3506 29.715C11.908 29.1966 7.23828 27.438 7.23828 19.5806C7.23828 17.3418 8.01969 15.5124 9.29922 14.0764C9.09156 13.5598 8.40648 11.4742 9.49266 8.64946C9.49266 8.64946 11.1726 8.09867 14.9942 10.7518C16.5894 10.2973 18.3003 10.0694 20.0002 10.0615C21.6995 10.0694 23.4118 10.2973 25.0102 10.7518C28.828 8.09859 30.5046 8.64946 30.5046 8.64946C31.5934 11.4742 30.9089 13.5598 30.7013 14.0764C31.9834 15.5125 32.7597 17.3419 32.7597 19.5806C32.7597 27.4569 28.0809 29.191 23.6273 29.6986C24.3446 30.335 24.9837 31.5829 24.9837 33.496C24.9837 36.2398 24.9604 38.4481 24.9604 39.1235C24.9604 39.6694 25.3206 40.3088 26.3343 40.1074C34.2766 37.3929 40 29.709 40 20.6517C40 9.32593 31.0455 0.145401 20.0003 0.145401Z" fill="#0B1722"/>
</svg>
