<svg width="40" height="41" viewBox="0 0 40 41" fill="none" xmlns="http://www.w3.org/2000/svg">
<path d="M36.25 0.145401H3.75C1.6875 0.145401 0 1.8329 0 3.8954V36.3954C0 38.4579 1.6875 40.1454 3.75 40.1454H36.25C38.3125 40.1454 40 38.4579 40 36.3954V3.8954C40 1.8329 38.3125 0.145401 36.25 0.145401ZM32.3984 28.1454L28.7422 28.2001C28.7422 28.2001 27.9531 28.3563 26.9219 27.6454C25.5547 26.7079 24.2656 24.2626 23.2578 24.5829C22.2422 24.9032 22.2734 27.0985 22.2734 27.0985C22.2734 27.0985 22.2812 27.5673 22.0469 27.8173C21.7969 28.0907 21.2969 28.1454 21.2969 28.1454H19.6641C19.6641 28.1454 16.0547 28.3642 12.875 25.0517C9.40625 21.4423 6.34375 14.2782 6.34375 14.2782C6.34375 14.2782 6.16406 13.8095 6.35938 13.5829C6.57812 13.3251 7.16406 13.3095 7.16406 13.3095L11.0781 13.286C11.0781 13.286 11.4453 13.3485 11.7109 13.5438C11.9297 13.7001 12.0469 14.0048 12.0469 14.0048C12.0469 14.0048 12.6797 15.6063 13.5156 17.0517C15.1484 19.872 15.9141 20.4892 16.4688 20.1923C17.2734 19.7548 17.0312 16.2001 17.0312 16.2001C17.0312 16.2001 17.0469 14.911 16.625 14.3407C16.2969 13.8954 15.6797 13.7626 15.4141 13.7313C15.1953 13.7001 15.5547 13.1923 16.0234 12.9579C16.7266 12.6142 17.9688 12.5907 19.4375 12.6063C20.5781 12.6142 20.9141 12.6923 21.3594 12.7938C22.7109 13.122 22.25 14.3798 22.25 17.3954C22.25 18.3642 22.0781 19.7235 22.7734 20.1688C23.0703 20.3642 23.8047 20.2001 25.6406 17.0829C26.5078 15.6063 27.1641 13.872 27.1641 13.872C27.1641 13.872 27.3047 13.5595 27.5234 13.4267C27.75 13.2938 28.0547 13.3329 28.0547 13.3329L32.1719 13.3095C32.1719 13.3095 33.4062 13.161 33.6094 13.7235C33.8203 14.3095 33.1484 15.6767 31.4688 17.9188C28.7109 21.5985 28.3984 21.2548 30.6953 23.3798C32.8828 25.411 33.3359 26.4032 33.4141 26.5282C34.3047 28.0282 32.3984 28.1454 32.3984 28.1454Z" fill="#0B1722"/>
</svg>
